<svg xmlns="http://www.w3.org/2000/svg" version="1.1" xmlns:xlink="http://www.w3.org/1999/xlink" xmlns:svgjs="http://svgjs.dev/svgjs" width="2000" height="1500" viewBox="0 0 2000 1500"><rect width="2000" height="1500" fill="#0f1214"></rect><g transform="matrix(0.4444444444444444,0,0,0.4444444444444444,555.5556208333335,250)"><svg viewBox="0 0 320 360" data-background-color="#0f1214" preserveAspectRatio="xMidYMid meet" height="2250" width="2000" xmlns="http://www.w3.org/2000/svg" xmlns:xlink="http://www.w3.org/1999/xlink"><g id="tight-bounds" transform="matrix(1,0,0,1,0.000023499999997511622,0)"><svg viewBox="0 0 320 360" height="360" width="320"><g><svg></svg></g><g><svg viewBox="0 0 320 360" height="360" width="320"><g><path transform="translate(-74.99272,-51.79039) scale(4.65793,4.65793)" d="M20.6 59.9l0.8 1-0.4-1.3c-0.1-0.6-0.8 0.1-0.4 0.3M21.5 59.3c0.3 0.5 0.6 1 0.6 1.5 0 0.7 0.6 1 1.1 1.2-0.7-0.8-1.1-3-1.7-2.7M59.9 16.9c1.7 0 3.3-0.2 5.1 0.2 4.4 1.1 8.1 3.3 10.6 6.4l7 11.2c0.3 2.8 0.9 5.9 0.8 9.3 0.7 0 0.6-1 1.4-1.2-0.8 2-1.2 4.5-1.4 7.4-0.5-1.6 0-4 0.1-5.3-0.7 1.1-1.1 0.3-1.1-0.2 0.1-0.8-0.3-0.7-0.6-1-1.1-1-1.8-2.1-2.6-3.8 0.5-1.3 0.6-3.2-1-4.2-0.5-0.3-1.1-0.8-1.4-1.6-0.4-1.1-1.1-2.4-0.9-4.1 0.1-0.5-1.5 1.1-2.4 0.4-3.9-2.7-7.8-5.8-12.5-8.4-2.5 0-4.3-0.9-5.2-2-0.8-1-0.2-2.3 1-2.4 0.7 0 1.5-0.2 2.1 0.2 0.1-0.4 0.5-0.9 1-0.9M50 14.6l0.2 0.1c1 0.2 1.5 1.6 2.6 1.1 0 0.7 0.1 1.4-0.1 1.9-0.3 0.8-1.2 0.8-1.9 0.8-6.7-0.4-10.6 2.4-14.7 4.8-1.1 0.7-2.3 1.2-3.2 2.1-4.3 4-9 7.7-10.1 15.1l-0.9 8.2c-0.1 0.9-1.1 1.8-0.9 2.9l0.7 4.9c-0.7-0.7-1.1 0.2-0.9 0.6 0.1 0.3 0.5 1.3 1.1 0.4 0.8 1.5 1.6 4.4 2.7 5.7 3.4 4 7.8 7.6 11.4 11.2 0.9-0.2 1.6-0.2 1.8-0.8 0.3 0.6-0.3 1.2-0.8 1.3 1.6 1 3.4 1.9 5.8 2.1 3.1 0.2 6 0.7 8.7 1.4 1.4-0.4 2.8-0.6 4.3-0.7 0.5 0 0.8-0.8 1.4-1l0.1-1c0.6 0.9 0.5-0.3 0.1-0.9 0.7 0.6 0.9 1.1 1.2 1.5 0-0.3 0.8-1.4 0.8-0.1l0.2-1.3c0.3-0.2 0.4 1.1 0.7 0.2 0.3-0.9 0.9-0.2 1.5-0.5-0.2 0.4-0.1 1.2 0.6 0.7l0.8-0.7c0.5 1.2 1.3 0.7 1.7 0.5 4.4-2.8 8.8-6.1 13-9.4l-0.1 1.3 0.5-1.6c0.5 0.5 0.9 0.1 1.1-0.2 0.6-1 1.4-2 2.7-2.9-1.6 4.3-3.5 7.7-5.9 10.5l-1 1.2c0 0.7-0.2 1.6-1 1.7-0.4 0.1-1.2-0.2-1.8 0.4-0.3 0.4 0.7 1.2-0.1 0.6-0.7-0.5-1.4 0-2.2 0.2-0.6 0.2 0.4 0.8 0.6 1.2 0.2 0.4 0.4 0.8 0.3 1.3l-1.1-1.2c-1.3 0.7-2.1 2-3.2 3-0.5 0.4-0.3 1.1-0.3 1.7-0.7 0-1.5-0.2-1.9 0.2-0.3 0.4-0.2 1-0.2 1.6-1-0.1-1.1-1.6-2-1.3-0.9 0.2-1.9 0.3-2.7 0.8 0.6 1.2-1 0.5-0.8 0.7-1.5-0.9-2.8-1.6-4.4-1-3.4-1.1-7.6-0.6-10.7-0.2 0-0.5 0.1-1-0.1-1.1-0.2 0.5-0.8 0.3-0.7 0.3-1.9-1.3-3.8-2.1-5.8-3.2-1.8 0.2-3.5-0.7-4-1.2-1.4-1.3-3-0.6-4.3-0.9-2.8-0.7-3.8-3.6-4.1-5.6-0.2-1-1-1.4-1.3-1.3-1.3-4.2-3.3-8-4.9-11.9-0.4-1-0.3-2-0.3-3.1 0.5 0.2 1 0.1 0.9-0.6-0.5-3.3-1.7-5.8-3-8.2 0.7-3.4 0.8-7.4 2.4-10.4 1.4-2.7 4-4.1 5.8-6.4 0.6-0.8 0.6-1.9 1.2-2.6 2-2 4-4.1 6.2-5.9 1-0.8 2.2 0 3.7-0.3 0.5-1.8 2.5-3.4 4.4-2.9 0.8 0.2 2.4-1.9 2.9-2.1 0.8-0.3 0.4 0.8 0.4 1.5 1.9-1.5 4.5-2.3 6.9-3.2" fill="#3399ff" fill-rule="nonzero" stroke="none" stroke-width="1" stroke-linecap="butt" stroke-linejoin="miter" stroke-miterlimit="10" stroke-dasharray="" stroke-dashoffset="0" font-family="none" font-weight="none" font-size="none" text-anchor="none" style="mix-blend-mode: normal" data-fill-palette-color="tertiary"></path></g><g transform="matrix(1,0,0,1,64.00000000000001,99.96262056740717)"><svg viewBox="0 0 191.99999999999997 160.07475886518566" height="160.07475886518566" width="191.99999999999997"><g><svg viewBox="0 0 191.99999999999997 160.07475886518566" height="160.07475886518566" width="191.99999999999997"><g><svg viewBox="0 0 192.00000000000003 160.0747588651857" height="160.07475886518566" width="191.99999999999997"><g transform="matrix(1,0,0,1,0,95.7010481711328)"><svg viewBox="0 0 192.00000000000003 64.37371069405287" height="64.37371069405287" width="192.00000000000003"><g id="textblocktransform"><svg viewBox="0 0 192.00000000000003 64.37371069405287" height="64.37371069405287" width="192.00000000000003" id="textblock"><g><svg viewBox="0 0 192.00000000000003 46.16498993963783" height="46.16498993963783" width="192.00000000000003"><g transform="matrix(1,0,0,1,0,0)"><svg width="192.00000000000003" viewBox="4.49 -35.01 145.6 35.01" height="46.16498993963783" data-palette-color="#3399ff"><path d="M24.05 0L22.56 0 9.5-25.66 9.5 0 4.49 0 4.49-35.01 9.96-35.01 23.29-8.64 36.65-35.01 42.09-35.01 42.09 0 37.11 0 37.11-25.66 24.05 0ZM51.1-5L51.1-35.01 56.1-35.01 56.1-5 76.1-5 76.1-35.01 81.1-35.01 81.1-5Q81.1-3.98 80.71-3.06 80.32-2.15 79.64-1.46 78.95-0.78 78.04-0.39 77.12 0 76.1 0L76.1 0 56.1 0Q55.08 0 54.16-0.39 53.24-0.78 52.56-1.46 51.88-2.15 51.49-3.06 51.1-3.98 51.1-5L51.1-5ZM87.08-30L87.08-35.01 115.08-35.01 115.08-30 103.58-30 103.58 0 98.58 0 98.58-30 87.08-30ZM121.09-5L121.09-30Q121.09-31.03 121.48-31.95 121.87-32.86 122.55-33.53 123.23-34.2 124.15-34.61 125.07-35.01 126.09-35.01L126.09-35.01 145.09-35.01Q146.11-35.01 147.03-34.61 147.94-34.2 148.63-33.53 149.31-32.86 149.7-31.95 150.09-31.03 150.09-30L150.09-30 150.09-25.49 145.09-25.49 145.09-30 126.09-30 126.09-5 145.09-5 145.09-9.5 150.09-9.5 150.09-5Q150.09-3.98 149.7-3.06 149.31-2.15 148.63-1.46 147.94-0.78 147.03-0.39 146.11 0 145.09 0L145.09 0 126.09 0Q125.07 0 124.15-0.39 123.23-0.78 122.55-1.46 121.87-2.15 121.48-3.06 121.09-3.98 121.09-5L121.09-5Z" opacity="1" transform="matrix(1,0,0,1,0,0)" fill="#3399ff" class="wordmark-text-0" data-fill-palette-color="primary" id="text-0"></path></svg></g></svg></g><g transform="matrix(1,0,0,1,0,52.901569931589535)"><svg viewBox="0 0 192.00000000000003 11.472140762463344" height="11.472140762463344" width="192.00000000000003"><g transform="matrix(1,0,0,1,0,0)"><svg width="192.00000000000003" viewBox="1.05 -32.25 545.6 32.6" height="11.472140762463344" data-palette-color="#3399ff"><path d="M44.25-32.05L32.75 0 28.6 0 22.35-18.6 22-18.6 15.4 0 11.25 0 1.05-32.05 5.05-32.05 5.6-28.95 13.4-4.45 13.75-4.45 20.65-23.95 17.95-32.05 22.05-32.05 22.8-28.6 30.7-4.45 31-4.45 39.7-28.75 40.45-32.05 44.25-32.05ZM70-24.9L69.85-7.8 69.95 0 66.25 0 66.4-7.5 66.35-10.9 52.8-10.85 52.75-7.8 52.85 0 49.15 0 49.3-7.5 49.15-24.9 52.9-24.9 52.8-14.2 59.55-14.15 66.35-14.2 66.25-24.9 70-24.9ZM87.5-3L94.15-3.2 94.45-2.9 94.1 0 78.95 0 79.1-7.5 78.95-24.9 94.2-24.9 94.45-24.6 94.15-21.7 87.85-21.9 82.65-21.85 82.6-14.3 87.55-14.25 91.9-14.4 92.15-14.05 91.85-11.1 87.25-11.25 82.6-11.2 82.55-7.8 82.6-3.05 87.5-3ZM112.15-10.05Q115.2-5.4 118.9-0.9L118.9-0.9 118.85-0.4Q116.75 0.25 115.4 0.35L115.4 0.35 114.75-0.05Q110.95-5.8 109-9.1L109-9.1 104.3-9.05 104.3-7.8 104.4 0 100.7 0 100.85-7.5 100.7-24.9 109.2-24.95Q113.15-24.95 115.28-23.1 117.4-21.25 117.4-17.75L117.4-17.75Q117.4-15.2 116.03-13.2 114.65-11.2 112.15-10.05L112.15-10.05ZM104.4-21.9L104.35-12.15 109.05-12Q113.5-13.25 113.5-17.45L113.5-17.45Q113.5-19.65 112.2-20.75 110.9-21.85 108.25-21.95L108.25-21.95 104.4-21.9ZM134.05-3L140.7-3.2 141-2.9 140.65 0 125.5 0 125.65-7.5 125.5-24.9 140.75-24.9 141-24.6 140.7-21.7 134.4-21.9 129.2-21.85 129.15-14.3 134.1-14.25 138.45-14.4 138.7-14.05 138.4-11.1 133.8-11.25 129.15-11.2 129.1-7.8 129.15-3.05 134.05-3ZM173.7-3.5L173.95-3.1 173.65 0 155.65 0 155.9-9.65 155.65-32.05 173.7-32.05 173.9-31.65 173.6-28.55 166.05-28.7 159.7-28.6 159.6-18.1 165.6-18 170.9-18.15 171.2-17.8 170.85-14.7 165.25-14.8 159.55-14.75 159.5-10 159.65-3.35 166-3.3 173.7-3.5ZM188.1-24.95Q192.05-24.95 194.17-23.05 196.3-21.15 196.3-17.55L196.3-17.55Q196.3-13.35 193.63-10.98 190.95-8.6 186.25-8.6L186.25-8.6 183.2-8.6 183.2-7.8 183.3 0 179.6 0 179.75-7.5 179.6-24.9 188.1-24.95ZM187.45-11.5Q192.4-12.35 192.4-17.25L192.4-17.25Q192.4-19.6 191.07-20.75 189.75-21.9 187.1-22L187.1-22 183.3-21.95 183.25-11.6 187.45-11.5ZM206.65-24.9L206.5-7.8 206.6 0 202.9 0 203.05-7.5 202.9-24.9 206.65-24.9ZM224.7-25.15Q228.85-25.15 231.9-23.4L231.9-23.4 231.2-19.95 230.75-19.8Q229.5-20.85 227.85-21.45 226.2-22.05 224.3-22.05L224.3-22.05Q220.6-22.05 218.65-19.68 216.7-17.3 216.7-12.6L216.7-12.6Q216.7-7.85 218.65-5.35 220.6-2.85 224.3-2.85L224.3-2.85Q226.1-2.85 227.93-3.48 229.75-4.1 231.2-5.15L231.2-5.15 231.65-5 231.3-1.55Q227.9 0.3 224.15 0.3L224.15 0.3Q218.65 0.3 215.7-2.98 212.75-6.25 212.75-12.3L212.75-12.3Q212.75-18.45 215.88-21.8 219-25.15 224.7-25.15L224.7-25.15ZM258.05-32.25Q264.9-32.25 268.55-28.35 272.2-24.45 272.2-17.15L272.2-17.15Q272.2-8.7 268.25-4.2 264.3 0.3 256.9 0.3L256.9 0.3Q254.85 0.3 251.93 0.23 249 0.15 246.5 0L246.5 0 246.45 0 246.7-9.65 246.45-32.05 246.5-32.05 258.05-32.25ZM257.55-3.05Q262.65-3.05 265.38-6.38 268.1-9.7 268.1-16.3L268.1-16.3Q268.1-28.9 257.75-28.9L257.75-28.9Q254.6-28.9 250.5-28.7L250.5-28.7 250.3-10 250.45-3.35Q252-3.2 254.18-3.13 256.35-3.05 257.55-3.05L257.55-3.05ZM287.15-3L293.8-3.2 294.1-2.9 293.75 0 278.6 0 278.75-7.5 278.6-24.9 293.85-24.9 294.1-24.6 293.8-21.7 287.5-21.9 282.3-21.85 282.25-14.3 287.2-14.25 291.55-14.4 291.8-14.05 291.5-11.1 286.9-11.25 282.25-11.2 282.2-7.8 282.25-3.05 287.15-3ZM319.85-24.9L310.35 0 305.9 0 297.2-24.9 301.05-24.9 301.65-22.15 308.1-3.7 308.35-3.7 315.5-22 316.1-24.9 319.85-24.9ZM331.95-25.15Q335-25.15 338.05-23.95L338.05-23.95 337.4-20.25 336.8-20.1Q335.4-21.2 334.15-21.73 332.9-22.25 331.55-22.25L331.55-22.25Q329.4-22.25 328.15-21.13 326.9-20 326.9-18.55L326.9-18.55Q326.9-17.1 328.13-16.2 329.35-15.3 331.9-14.2L331.9-14.2Q334.15-13.2 335.48-12.4 336.8-11.6 337.78-10.28 338.75-8.95 338.75-7.05L338.75-7.05Q338.75-5.1 337.7-3.43 336.65-1.75 334.63-0.73 332.6 0.3 329.8 0.3L329.8 0.3Q328.05 0.3 326.13-0.13 324.2-0.55 322.55-1.4L322.55-1.4 323-5.35 323.5-5.55Q324.9-4.15 326.78-3.38 328.65-2.6 330.25-2.6L330.25-2.6Q332.35-2.6 333.7-3.73 335.05-4.85 335.05-6.45L335.05-6.45Q335.05-7.95 333.83-8.85 332.6-9.75 330-10.95L330-10.95Q327.85-11.9 326.48-12.7 325.1-13.5 324.15-14.83 323.2-16.15 323.2-18.05L323.2-18.05Q323.2-20.05 324.28-21.65 325.35-23.25 327.33-24.2 329.3-25.15 331.95-25.15L331.95-25.15ZM366.7-32.05L377.4 0 373.3 0 372.55-3.2 370.75-8.7 363.55-8.85 357.05-8.7 355.1-3.4 354.3 0 350.3 0 362.05-32.05 366.7-32.05ZM363.9-12L369.65-12.1 364.45-27.9 364.1-27.9 358.3-12.1 363.9-12ZM394.45-10.05Q397.5-5.4 401.2-0.9L401.2-0.9 401.15-0.4Q399.05 0.25 397.7 0.35L397.7 0.35 397.05-0.05Q393.25-5.8 391.3-9.1L391.3-9.1 386.6-9.05 386.6-7.8 386.7 0 383 0 383.15-7.5 383-24.9 391.5-24.95Q395.45-24.95 397.57-23.1 399.7-21.25 399.7-17.75L399.7-17.75Q399.7-15.2 398.32-13.2 396.95-11.2 394.45-10.05L394.45-10.05ZM386.7-21.9L386.65-12.15 391.35-12Q395.8-13.25 395.8-17.45L395.8-17.45Q395.8-19.65 394.5-20.75 393.2-21.85 390.55-21.95L390.55-21.95 386.7-21.9ZM416.35-3L423-3.2 423.3-2.9 422.95 0 407.8 0 407.95-7.5 407.8-24.9 423.05-24.9 423.3-24.6 423-21.7 416.7-21.9 411.5-21.85 411.45-14.3 416.4-14.25 420.75-14.4 421-14.05 420.7-11.1 416.1-11.25 411.45-11.2 411.4-7.8 411.45-3.05 416.35-3ZM466.55-32.05L469.7 0 466.1 0 465.35-9.75 463.65-25.7 463.3-25.7 454.4-3.7 451.1-3.7 442.65-25.7 442.25-25.7 440.55-10.05 439.7 0 436.3 0 439.65-32.05 444.2-32.05 445.85-27.15 452.8-8.9 453.1-8.9 460.4-27.45 462.05-32.05 466.55-32.05ZM487.9-24.9L496.65 0 492.9 0 492.3-2.7 491-6.4 485.05-6.45 479.75-6.4 478.4-2.9 477.7 0 474 0 483.6-24.9 487.9-24.9ZM485.35-9.4L489.95-9.45 485.8-21.25 485.5-21.25 480.95-9.45 485.35-9.4ZM512.6-25.1Q518.3-25.1 521.33-22.05 524.35-19 524.35-13.3L524.35-13.3Q524.35-6.75 521.05-3.25 517.75 0.25 511.6 0.25L511.6 0.25Q509.85 0.25 507.43 0.18 505 0.1 502.85 0L502.85 0 503-7.5 502.85-24.9 512.6-25.1ZM512.2-2.8Q516.2-2.8 518.38-5.23 520.55-7.65 520.55-12.55L520.55-12.55Q520.55-17.35 518.5-19.65 516.45-21.95 512.3-21.95L512.3-21.95Q509.85-21.95 506.55-21.75L506.55-21.75 506.45-7.8 506.5-3.1Q507.95-3 509.55-2.9 511.15-2.8 512.2-2.8L512.2-2.8ZM539.7-3L546.35-3.2 546.65-2.9 546.3 0 531.15 0 531.3-7.5 531.15-24.9 546.4-24.9 546.65-24.6 546.35-21.7 540.05-21.9 534.85-21.85 534.8-14.3 539.75-14.25 544.1-14.4 544.35-14.05 544.05-11.1 539.45-11.25 534.8-11.2 534.75-7.8 534.8-3.05 539.7-3Z" opacity="1" transform="matrix(1,0,0,1,0,0)" fill="#3399ff" class="slogan-text-1" data-fill-palette-color="secondary" id="text-1"></path></svg></g></svg></g></svg></g></svg></g><g transform="matrix(1,0,0,1,50.21992487540355,0)"><svg viewBox="0 0 91.56015024919293 88.96446817918108" height="88.96446817918108" width="91.56015024919293"><g><svg xmlns="http://www.w3.org/2000/svg" xmlns:xlink="http://www.w3.org/1999/xlink" xmlns:serif="http://www.serif.com/" viewBox="14.583 17.95 237.5 230.76700000000002" version="1.1" xml:space="preserve" style="" x="0" y="0" fill-rule="evenodd" clip-rule="evenodd" stroke-linejoin="round" stroke-miterlimit="2" height="88.96446817918108" width="91.56015024919293" class="icon-icon-0" data-fill-palette-color="accent" id="icon-0"><path d="M158.215 30.462C158.215 23.556 152.609 17.95 145.703 17.95H27.095C20.19 17.95 14.583 23.556 14.583 30.462 14.583 37.367 20.19 42.973 27.095 42.973H145.703C152.609 42.973 158.215 37.367 158.215 30.462M154.048 30.462C154.048 35.067 150.309 38.806 145.703 38.806H27.095C22.489 38.806 18.75 35.067 18.75 30.462A8.35 8.35 0 0 1 27.095 22.117H145.703A8.35 8.35 0 0 1 154.048 30.462" fill="#3399ff" data-fill-palette-color="accent"></path><path d="M38.744 196.896A2.082 2.082 0 0 0 41.484 198.873C52.333 195.27 66.227 189.326 83.327 179.56A91 91 0 0 1 85.591 178.307 2.082 2.082 0 0 0 85.747 174.726C72.819 166.282 54.015 169.369 42.693 172.564L42.671 172.571A5.47 5.47 0 0 0 38.744 177.829zM80.333 176.468C65.362 184.956 52.927 190.447 42.91 193.98H42.911V177.821A1.3 1.3 0 0 1 43.842 176.57C53.38 173.879 68.689 170.985 80.333 176.468" fill="#3399ff" data-fill-palette-color="accent"></path><path d="M38.744 77.109V81.644A35.737 35.737 0 0 0 74.481 117.381H98.318A35.7 35.7 0 0 0 114.411 113.552 2.084 2.084 0 0 0 114.794 110.081C110.903 106.89 106.852 103.073 102.662 98.523 85.203 79.565 63.501 72.892 45.122 71.226L45.095 71.224A5.896 5.896 0 0 0 38.744 77.112zM42.911 81.644V77.106A1.73 1.73 0 0 1 44.748 75.377C62.275 76.967 82.966 83.287 99.597 101.346 103.02 105.063 106.355 108.306 109.589 111.132A31.5 31.5 0 0 1 98.318 113.214H74.481A31.57 31.57 0 0 1 42.911 81.644" fill="#3399ff" data-fill-palette-color="accent"></path><path d="M113.383 113.773L113.473 113.775 113.762 113.696A2.1 2.1 0 0 0 114.554 113.479L114.556 113.478 114.554 113.479 114.566 113.474A35.74 35.74 0 0 0 134.054 81.644S134.054 79.115 134.044 76.758C134.044 75.152 133.38 73.608 132.208 72.497A5.88 5.88 0 0 0 127.846 70.89L127.813 70.892C115.527 71.739 100.624 75.512 85.785 86.018A2.084 2.084 0 0 0 85.82 89.442C90.603 92.687 95.239 96.614 99.597 101.346 103.933 106.054 108.126 110.001 112.152 113.302 112.501 113.589 112.933 113.753 113.383 113.773M113.731 109.195C110.166 106.191 106.472 102.66 102.662 98.523A83.6 83.6 0 0 0 90.644 87.748H90.642C103.906 79.041 117.091 75.811 128.077 75.05A1.72 1.72 0 0 1 129.877 76.767L129.887 81.644A31.57 31.57 0 0 1 113.731 109.195" fill="#3399ff" data-fill-palette-color="accent"></path><path d="M58.349 128.327A49.39 49.39 0 0 0 25.09 175.009V215.764C25.09 216.914 26.022 217.847 27.173 217.847H128.032A2.083 2.083 0 0 0 129.794 214.652C123.564 204.783 119.958 193.094 119.958 180.571A63.67 63.67 0 0 1 132.777 142.166 2.084 2.084 0 0 0 132.556 139.412 49.4 49.4 0 0 0 114.449 128.326 49.39 49.39 0 0 0 147.709 81.644V40.89A2.084 2.084 0 0 0 145.625 38.806H27.173A2.083 2.083 0 0 0 25.09 40.89V81.644A49.39 49.39 0 0 0 58.349 128.327M124.373 213.68H29.256V175.009A45.224 45.224 0 0 1 63.938 131.031 2.77 2.77 0 0 0 66.077 128.327C66.077 127.029 65.177 125.904 63.911 125.618A45.23 45.23 0 0 1 29.256 81.644V42.973H143.542V81.644A45.23 45.23 0 0 1 108.86 125.623C107.619 125.903 106.721 127.028 106.721 128.327 106.721 129.625 107.621 130.75 108.887 131.035A45.2 45.2 0 0 1 128.335 141.183 67.8 67.8 0 0 0 115.791 180.571C115.791 192.584 118.907 203.875 124.372 213.68z" fill="#3399ff" data-fill-palette-color="accent"></path><path d="M121.471 204.193A2.083 2.083 0 0 0 123.44 201.43 63.8 63.8 0 0 1 119.958 180.571C119.958 176.294 120.378 172.114 121.18 168.071A2.084 2.084 0 0 0 119.223 165.584C108.391 165.133 95.656 167.72 81.261 175.941 64.467 185.533 50.826 191.38 40.171 194.918A2.08 2.08 0 0 0 38.744 196.896V202.109A2.084 2.084 0 0 0 40.827 204.193zM118.614 200.026H42.91L42.911 198.391C53.542 194.748 66.967 188.903 83.327 179.56 95.833 172.417 106.993 169.739 116.656 169.702A68.5 68.5 0 0 0 115.791 180.571C115.791 187.329 116.778 193.86 118.614 200.025z" fill="#3399ff" data-fill-palette-color="accent"></path><path d="M129.79 214.646A2.08 2.08 0 0 0 128.028 213.674H27.095C20.19 213.674 14.583 219.28 14.583 226.186 14.583 233.091 20.19 238.697 27.095 238.697H145.703C146.824 238.697 147.91 238.549 148.943 238.272A2.085 2.085 0 0 0 149.527 234.505 64.4 64.4 0 0 1 129.79 214.646M126.891 217.841A68.5 68.5 0 0 0 142.334 234.53H27.095C22.489 234.53 18.75 230.791 18.75 226.186A8.35 8.35 0 0 1 27.095 217.841z" fill="#3399ff" data-fill-palette-color="accent"></path><path d="M183.937 112.424C146.326 112.424 115.791 142.96 115.791 180.571 115.791 218.181 146.326 248.717 183.937 248.717S252.083 218.181 252.083 180.571 221.548 112.424 183.937 112.424M183.937 116.591C219.248 116.591 247.917 145.259 247.917 180.571S219.248 244.55 183.937 244.55 119.958 215.882 119.958 180.571 148.626 116.591 183.937 116.591" fill="#3399ff" data-fill-palette-color="accent"></path><path d="M149.768 125.794A2.084 2.084 0 0 0 146.598 123.569C128.048 135.751 115.791 156.741 115.791 180.571 115.791 205.137 128.818 226.685 148.338 238.677 148.923 239.036 149.648 239.085 150.275 238.806 153.892 237.197 156.926 234.247 160.179 231.104 168.961 222.618 177.677 212.441 177.297 199.428 177.051 191.009 171.909 184.534 167.091 178.099 164.137 174.155 162.451 169.675 160.009 165.469 158.79 163.369 156.707 161.763 155.658 159.556 155.396 159.003 155.598 158.568 155.793 158.121 156.104 157.409 156.491 156.687 156.757 155.875 157.879 152.453 158.956 148.723 158.383 145.09 157.876 141.876 155.836 139.797 153.584 137.801 151.984 136.383 150.228 135.039 149.587 132.778 148.917 130.412 149.221 128.088 149.768 125.794M145.042 129.786A14.6 14.6 0 0 0 145.578 133.914C146.451 136.995 148.64 138.987 150.821 140.919 152.35 142.275 153.923 143.557 154.267 145.74 154.738 148.723 153.719 151.766 152.798 154.578 152.499 155.49 152.014 156.271 151.726 157.074 151.256 158.384 151.126 159.725 151.895 161.343 152.992 163.653 155.13 165.364 156.406 167.561 158.929 171.908 160.703 176.52 163.755 180.597 168.064 186.352 172.912 192.02 173.132 199.55 173.477 211.354 165.25 220.41 157.283 228.108 154.702 230.602 152.325 233.021 149.553 234.52 131.762 223.15 119.958 203.228 119.958 180.571 119.958 159.886 129.796 141.481 145.044 129.782z" fill="#3399ff" data-fill-palette-color="accent"></path><path d="M199.651 114.249A2.08 2.08 0 0 0 197.788 114.719C190.651 121.064 183.655 128.893 185.768 139.038 186.424 142.187 188.575 143.948 191.322 145.177 192.933 145.897 194.759 146.429 196.437 147.111 197.732 147.638 198.948 148.23 199.732 149.261 200.969 150.889 201.328 152.789 201.718 154.679 202.225 157.136 202.751 159.589 204.232 161.761 205.89 164.192 207.906 165.556 210.011 166.766 211.707 167.741 213.473 168.588 215.022 170.137 218.565 173.68 220.916 178.222 224.571 181.73 231.661 188.537 240.002 190.948 249.364 191.288A2.084 2.084 0 0 0 251.505 189.476C251.886 186.564 252.083 183.59 252.083 180.571 252.083 148.368 229.698 121.353 199.651 114.249M199.744 118.562C227.422 125.606 247.917 150.714 247.917 180.571 247.917 182.748 247.808 184.9 247.595 187.021 240.051 186.479 233.266 184.302 227.456 178.725 223.822 175.236 221.491 170.714 217.968 167.19 216.139 165.361 214.09 164.305 212.088 163.154 210.495 162.238 208.929 161.253 207.675 159.413 206.515 157.713 206.195 155.761 205.798 153.837 205.284 151.344 204.681 148.887 203.049 146.74 201.154 144.245 197.74 143.158 194.54 141.98 192.421 141.2 190.322 140.47 189.847 138.188 188.135 129.972 193.944 123.788 199.742 118.562z" fill="#3399ff" data-fill-palette-color="accent"></path><path d="M186.842 246.361A2.08 2.08 0 0 0 189.078 248.525C213.62 246.69 234.557 231.835 244.994 210.848A2.085 2.085 0 0 0 243.861 207.97C241.233 206.983 238.417 206.278 235.204 205.796 232.253 205.354 228.923 204.576 226.033 205.707 224.95 206.131 224.035 206.986 223.295 208.074 222.546 209.176 221.981 210.545 221.402 211.48 220.072 213.628 217.878 216.357 215.838 217.841 215.2 218.305 214.46 218.433 213.702 218.481 212.607 218.551 211.468 218.44 210.368 218.417 208.334 218.374 206.425 218.643 204.863 219.837 201.433 222.461 198.979 226.89 196.376 230.263 194.325 232.923 191.5 235.746 189.51 238.838 187.998 241.187 186.952 243.691 186.842 246.361M191.481 244.109C192.014 242.566 192.937 241.11 193.976 239.707 195.793 237.255 198.001 234.979 199.676 232.808 202.069 229.705 204.239 225.56 207.394 223.147 208.493 222.307 209.948 222.56 211.402 222.624 213.834 222.73 216.28 222.672 218.289 221.211 220.716 219.445 223.362 216.229 224.945 213.673 225.423 212.901 225.889 211.83 226.46 210.862 226.773 210.333 227.056 209.781 227.551 209.587 229.77 208.719 232.32 209.577 234.586 209.917 236.592 210.218 238.428 210.612 240.155 211.122 230.444 228.935 212.516 241.635 191.481 244.109" fill="#3399ff" data-fill-palette-color="accent"></path></svg></g></svg></g><g></g></svg></g></svg></g></svg></g></svg></g><defs></defs></svg><rect width="320" height="360" fill="none" stroke="none" visibility="hidden"></rect></g></svg></g></svg>